<svg width="98" height="81" viewBox="0 0 98 81" fill="none" xmlns="http://www.w3.org/2000/svg">
<path d="M62.9044 23.569C59.9798 24.5508 55.081 28.1709 58.883 34.7975C62.6851 41.4242 71.3127 56.5796 75.1513 63.329L98 23.569H62.9044Z" fill="white"/>
<path d="M75.1513 63.329L71.1299 40.3197C70.3988 36.0247 71.1299 23.569 82.0973 23.569H97.8172L75.1513 63.329Z" fill="#F0F0F0"/>
<path d="M19.0101 49.5234L0 81L26.5045 78.0548L42.4072 51.9164C39.6653 47.3759 31.1473 40.5406 19.0101 49.5234Z" fill="#F0F0F0"/>
<path d="M15.4528 55.4138L41.0433 13.2609L71.7519 63.3289C74.311 67.5626 73.3971 76.03 63.5264 78.607C59.2857 79.4906 54.326 79.8342 52.1935 80.0796L38.8498 57.9908C36.108 53.5117 27.59 46.7255 15.4528 55.4138Z" fill="white"/>
<path d="M88.2031 10.6763C88.2031 16.5726 83.4565 21.3525 77.6013 21.3525C71.7461 21.3525 66.9995 16.5726 66.9995 10.6763C66.9995 4.77993 71.7461 0 77.6013 0C83.4565 0 88.2031 4.77993 88.2031 10.6763Z" fill="#FFCB27"/>
</svg>
